<svg width="12" height="12" viewBox="0 0 12 12" fill="none" xmlns="http://www.w3.org/2000/svg">
<path d="M10.3366 0.700533C10.6027 0.434431 11.0344 0.434431 11.3005 0.700533C11.5664 0.9666 11.5664 1.39734 11.3005 1.66342L6.96358 6.00034L11.2995 10.3363C11.5655 10.6023 11.5654 11.0331 11.2995 11.2992C11.0334 11.5653 10.6017 11.5653 10.3357 11.2992L5.99972 6.96323L1.66475 11.3001C1.39867 11.5662 0.966972 11.5662 0.700887 11.3001C0.435083 11.034 0.434922 10.6023 0.700887 10.3363L5.03682 6.00034L0.699911 1.66342C0.433969 1.39738 0.434059 0.965652 0.699911 0.699557C0.965982 0.433468 1.39769 0.433495 1.66378 0.699557L5.99972 5.03647L10.3366 0.700533Z" fill="white"/>
</svg>
